# xmcd
#
# Track frame offsets: 
#        150
#        13696
#        28409
#        42437
#        57181
#        70128
#        85135
#        101081
#        114226
#        130033
#        143444
#        159601
#        175620
#
# Disc length: 2554 seconds
#
# Revision: 0
# Processed by: cddbd v1.5.2PL0 Copyright (c) Steve Scherf et al.
# Submitted via: ExactAudioCopy v1.0b4
#
DISCID=a509f80d
DTITLE=John 'Lonely Stranger' Pihel - The Songs Of Lonely Soul
DYEAR=2015
DGENRE=Blues Rock
TTITLE0=If You Think
TTITLE1=Sad Old Man Blues
TTITLE2=Just Drink
TTITLE3=Elisia
TTITLE4=Pain
TTITLE5=Love Vs Freedom
TTITLE6=Weep For The Flowers
TTITLE7=No Hope Come Back
TTITLE8=My World
TTITLE9=Freedom
TTITLE10=You Were Right
TTITLE11=Dust In The Wind
TTITLE12=What You Think
EXTD=
EXTT0=
EXTT1=
EXTT2=
EXTT3=
EXTT4=
EXTT5=
EXTT6=
EXTT7=
EXTT8=
EXTT9=
EXTT10=
EXTT11=
EXTT12=
PLAYORDER=
